# Made in Blockbench 5.1.4
mtllib firearm_worktable.mtl

o cube
v 0.5 0.9375 0.36875
v 0.5 0.9375 -0.38125
v 0.5 0 0.36875
v 0.5 0 -0.38125
v -0.5 0.9375 -0.38125
v -0.5 0.9375 0.36875
v -0.5 0 -0.38125
v -0.5 0 0.36875
vt 0.4375 0.50000015625
vt 0.6875 0.50000015625
vt 0.6875 0.24999984374999995
vt 0.4375 0.24999984374999995
vt 0.25 0.50000015625
vt 0.4375 0.50000015625
vt 0.4375 0.24999984374999995
vt 0.25 0.24999984374999995
vt 0 0.50000015625
vt 0.25 0.50000015625
vt 0.25 0.24999984374999995
vt 0 0.24999984374999995
vt 0.6875 0.50000015625
vt 0.875 0.50000015625
vt 0.875 0.24999984374999995
vt 0.6875 0.24999984374999995
vt 0.4375 0.75
vt 0.4375 0.50000015625
vt 0.25 0.50000015625
vt 0.25 0.75
vt 0.25 0.24999984374999995
vt 0.4375 0.24999984374999995
vt 0.4375 0
vt 0.25 0
vn 0 0 -1
vn 1 0 0
vn 0 0 1
vn -1 0 0
vn 0 1 0
vn 0 -1 0
usemtl m_9dbc09cb-1769-90c4-2ae5-08a833a77556
f 4/4/1 7/3/1 5/2/1 2/1/1
f 3/8/2 4/7/2 2/6/2 1/5/2
f 8/12/3 3/11/3 1/10/3 6/9/3
f 7/16/4 8/15/4 6/14/4 5/13/4
f 6/20/5 1/19/5 2/18/5 5/17/5
f 7/24/6 4/23/6 3/22/6 8/21/6
o cube
v -0.3124999999999999 -1.1102230246251565e-16 -0.3812500000000001
v -0.3124999999999999 -1.1102230246251565e-16 -0.5062500000000001
v -0.4374999999999999 -1.1102230246251565e-16 -0.3812500000000001
v -0.4374999999999999 -1.1102230246251565e-16 -0.5062500000000001
v -0.3125000000000001 0.9374999999999999 -0.5062500000000001
v -0.3125000000000001 0.9374999999999999 -0.3812500000000001
v -0.4375000000000001 0.9374999999999999 -0.5062500000000001
v -0.4375000000000001 0.9374999999999999 -0.3812500000000001
vt 0.015625 0.4375
vt 0.25 0.4375
vt 0.25 0.46875
vt 0.015625 0.46875
vt 0.46875 0.43749984374999995
vt 0.46875 0.46875
vt 0.4375 0.46875
vt 0.4375 0.43749984374999995
vt 0.4375 0.46875
vt 0.4375 0.43749984374999995
vt 0.46875 0.43749984374999995
vt 0.46875 0.46875
vt 0.703125 0.35937484374999995
vt 0.453125 0.35937484374999995
vt 0.453125 0.390625
vt 0.703125 0.390625
vt 0.4375 0.43750015625000005
vt 0.671875 0.43750015625000005
vt 0.671875 0.46874984374999995
vt 0.4375 0.46874984374999995
vn 0 0 -1
vn 2.220446049250313e-16 -1 0
vn -2.220446049250313e-16 1 0
vn 1 2.220446049250313e-16 0
vn -1 -2.220446049250313e-16 0
usemtl m_9dbc09cb-1769-90c4-2ae5-08a833a77556
f 12/28/7 15/27/7 13/26/7 10/25/7
f 11/32/8 12/31/8 10/30/8 9/29/8
f 15/36/9 16/35/9 14/34/9 13/33/9
f 14/40/10 9/39/10 10/38/10 13/37/10
f 15/44/11 12/43/11 11/42/11 16/41/11
o cube
v 0.3125 0.125 -0.38125
v 0.3125 0.125 -0.50625
v 0.3125 0 -0.38125
v 0.3125 0 -0.50625
v -0.3125 0.125 -0.50625
v -0.3125 0.125 -0.38125
v -0.3125 0 -0.50625
v -0.3125 0 -0.38125
vt 0.046875 0.4375
vt 0.203125 0.4375
vt 0.203125 0.46875
vt 0.046875 0.46875
vt 0 0.75
vt 0 0.75
vt 0 0.75
vt 0 0.75
vt 0 0.75
vt 0 0.75
vt 0 0.75
vt 0 0.75
vt 0.85937515625 0.35937484374999995
vt 0.70312484375 0.35937484374999995
vt 0.70312484375 0.390625
vt 0.85937515625 0.390625
vt 0.70312484375 0.43750015625000005
vt 0.85937515625 0.43750015625000005
vt 0.85937515625 0.46874984374999995
vt 0.70312484375 0.46874984374999995
vn 0 0 -1
vn 1 0 0
vn -1 0 0
vn 0 1 0
vn 0 -1 0
usemtl m_9dbc09cb-1769-90c4-2ae5-08a833a77556
f 20/48/12 23/47/12 21/46/12 18/45/12
f 19/52/13 20/51/13 18/50/13 17/49/13
f 23/56/14 24/55/14 22/54/14 21/53/14
f 22/60/15 17/59/15 18/58/15 21/57/15
f 23/64/16 20/63/16 19/62/16 24/61/16
o cube
v 0.3125 0.9375000000000001 -0.38125
v 0.3125 0.9375000000000001 -0.50625
v 0.3125 0.8125000000000001 -0.38125
v 0.3125 0.8125000000000001 -0.50625
v -0.31250000000000006 0.9375000000000001 -0.50625
v -0.31250000000000006 0.9375000000000001 -0.38125
v -0.31250000000000006 0.8125000000000001 -0.50625
v -0.31250000000000006 0.8125000000000001 -0.38125
vt 0.046875 0.46875
vt 0.203125 0.46875
vt 0.203125 0.4375
vt 0.046875 0.4375
vt 0 0.75
vt 0 0.75
vt 0 0.75
vt 0 0.75
vt 0 0.75
vt 0 0.75
vt 0 0.75
vt 0 0.75
vt 0.85937515625 0.46875
vt 0.70312484375 0.46875
vt 0.70312484375 0.43749984374999995
vt 0.85937515625 0.43749984374999995
vt 0.70312484375 0.39062484374999995
vt 0.85937515625 0.39062484374999995
vt 0.85937515625 0.35937515625000005
vt 0.70312484375 0.35937515625000005
vn 0 0 -1
vn 1 0 0
vn -1 0 0
vn 0 1 0
vn 0 -1 0
usemtl m_9dbc09cb-1769-90c4-2ae5-08a833a77556
f 28/68/17 31/67/17 29/66/17 26/65/17
f 27/72/18 28/71/18 26/70/18 25/69/18
f 31/76/19 32/75/19 30/74/19 29/73/19
f 30/80/20 25/79/20 26/78/20 29/77/20
f 31/84/21 28/83/21 27/82/21 32/81/21
o cube
v 0.3125 0.9375 0.49375
v 0.3125 0.9375 0.36875
v 0.3125 0.8125 0.49375
v 0.3125 0.8125 0.36875
v -0.3125 0.9375 0.36875
v -0.3125 0.9375 0.49375
v -0.3125 0.8125 0.36875
v -0.3125 0.8125 0.49375
vt 0 0.75
vt 0 0.75
vt 0 0.75
vt 0 0.75
vt 0 0.75
vt 0 0.75
vt 0 0.75
vt 0 0.75
vt 0.70312484375 0.46875
vt 0.85937515625 0.46875
vt 0.85937515625 0.43749984374999995
vt 0.70312484375 0.43749984374999995
vt 0 0.75
vt 0 0.75
vt 0 0.75
vt 0 0.75
vt 0.85937515625 0.43749984374999995
vt 0.70312484375 0.43749984374999995
vt 0.70312484375 0.46875
vt 0.85937515625 0.46875
vt 0.70312484375 0.39062484374999995
vt 0.85937515625 0.39062484374999995
vt 0.85937515625 0.35937515625000005
vt 0.70312484375 0.35937515625000005
vn 0 0 -1
vn 1 0 0
vn 0 0 1
vn -1 0 0
vn 0 1 0
vn 0 -1 0
usemtl m_9dbc09cb-1769-90c4-2ae5-08a833a77556
f 36/88/22 39/87/22 37/86/22 34/85/22
f 35/92/23 36/91/23 34/90/23 33/89/23
f 40/96/24 35/95/24 33/94/24 38/93/24
f 39/100/25 40/99/25 38/98/25 37/97/25
f 38/104/26 33/103/26 34/102/26 37/101/26
f 39/108/27 36/107/27 35/106/27 40/105/27
o cube
v 0.4375000000000001 1.1102230246251565e-16 0.49375000000000013
v 0.4375000000000001 1.1102230246251565e-16 0.36875000000000013
v 0.3125000000000001 1.1102230246251565e-16 0.49375000000000013
v 0.3125000000000001 1.1102230246251565e-16 0.36875000000000013
v 0.4374999999999999 0.9375000000000001 0.36875000000000013
v 0.4374999999999999 0.9375000000000001 0.49375000000000013
v 0.3124999999999999 0.9375000000000001 0.36875000000000013
v 0.3124999999999999 0.9375000000000001 0.49375000000000013
vt 0 0.75
vt 0 0.75
vt 0 0.75
vt 0 0.75
vt 0.46875 0.46875
vt 0.46875 0.43749984374999995
vt 0.4375 0.43749984374999995
vt 0.4375 0.46875
vt 0.4375 0.46875
vt 0.6875 0.46875
vt 0.6875 0.43749984374999995
vt 0.4375 0.43749984374999995
vt 0.4375 0.43749984374999995
vt 0.4375 0.46875
vt 0.46875 0.46875
vt 0.46875 0.43749984374999995
vt 0.6875 0.43749984374999995
vt 0.4375 0.43749984374999995
vt 0.4375 0.46875
vt 0.6875 0.46875
vt 0.4375 0.39062484374999995
vt 0.6875 0.39062484374999995
vt 0.6875 0.35937515625000005
vt 0.4375 0.35937515625000005
vn 0 0 -1
vn 2.220446049250313e-16 -1 0
vn 0 0 1
vn -2.220446049250313e-16 1 0
vn 1 2.220446049250313e-16 0
vn -1 -2.220446049250313e-16 0
usemtl m_9dbc09cb-1769-90c4-2ae5-08a833a77556
f 44/112/28 47/111/28 45/110/28 42/109/28
f 43/116/29 44/115/29 42/114/29 41/113/29
f 48/120/30 43/119/30 41/118/30 46/117/30
f 47/124/31 48/123/31 46/122/31 45/121/31
f 46/128/32 41/127/32 42/126/32 45/125/32
f 47/132/33 44/131/33 43/130/33 48/129/33
o cube
v -0.4374999999999999 0.9375000000000001 0.49375000000000013
v -0.4374999999999999 0.9375000000000001 0.36875000000000013
v -0.3124999999999999 0.9375000000000001 0.49375000000000013
v -0.3124999999999999 0.9375000000000001 0.36875000000000013
v -0.4375000000000001 1.1102230246251565e-16 0.36875000000000013
v -0.4375000000000001 1.1102230246251565e-16 0.49375000000000013
v -0.3125000000000001 1.1102230246251565e-16 0.36875000000000013
v -0.3125000000000001 1.1102230246251565e-16 0.49375000000000013
vt 0 0.75
vt 0 0.75
vt 0 0.75
vt 0 0.75
vt 0.46875 0.46875
vt 0.46875 0.43749984374999995
vt 0.4375 0.43749984374999995
vt 0.4375 0.46875
vt 0.4375 0.46875
vt 0.6875 0.46875
vt 0.6875 0.43749984374999995
vt 0.4375 0.43749984374999995
vt 0.4375 0.43749984374999995
vt 0.4375 0.46875
vt 0.46875 0.46875
vt 0.46875 0.43749984374999995
vt 0.6875 0.43749984374999995
vt 0.4375 0.43749984374999995
vt 0.4375 0.46875
vt 0.6875 0.46875
vt 0.4375 0.39062484374999995
vt 0.6875 0.39062484374999995
vt 0.6875 0.35937515625000005
vt 0.4375 0.35937515625000005
vn 0 0 -1
vn 2.220446049250313e-16 1 0
vn 0 0 1
vn -2.220446049250313e-16 -1 0
vn -1 2.220446049250313e-16 0
vn 1 -2.220446049250313e-16 0
usemtl m_9dbc09cb-1769-90c4-2ae5-08a833a77556
f 52/136/34 55/135/34 53/134/34 50/133/34
f 51/140/35 52/139/35 50/138/35 49/137/35
f 56/144/36 51/143/36 49/142/36 54/141/36
f 55/148/37 56/147/37 54/146/37 53/145/37
f 54/152/38 49/151/38 50/150/38 53/149/38
f 55/156/39 52/155/39 51/154/39 56/153/39
o cube
v 0.3125 0.125 0.49375
v 0.3125 0.125 0.36875
v 0.3125 0 0.49375
v 0.3125 0 0.36875
v -0.31250000000000006 0.125 0.36875
v -0.31250000000000006 0.125 0.49375
v -0.31250000000000006 0 0.36875
v -0.31250000000000006 0 0.49375
vt 0 0.75
vt 0 0.75
vt 0 0.75
vt 0 0.75
vt 0 0.75
vt 0 0.75
vt 0 0.75
vt 0 0.75
vt 0.70312484375 0.46875
vt 0.85937515625 0.46875
vt 0.85937515625 0.43749984374999995
vt 0.70312484375 0.43749984374999995
vt 0 0.75
vt 0 0.75
vt 0 0.75
vt 0 0.75
vt 0.70312484375 0.34375
vt 0.85937515625 0.34375
vt 0.85937515625 0.31249984374999995
vt 0.70312484375 0.31249984374999995
vt 0.70312484375 0.46874984374999995
vt 0.85937515625 0.46874984374999995
vt 0.85937515625 0.43750015625000005
vt 0.70312484375 0.43750015625000005
vn 0 0 -1
vn 1 0 0
vn 0 0 1
vn -1 0 0
vn 0 1 0
vn 0 -1 0
usemtl m_9dbc09cb-1769-90c4-2ae5-08a833a77556
f 60/160/40 63/159/40 61/158/40 58/157/40
f 59/164/41 60/163/41 58/162/41 57/161/41
f 64/168/42 59/167/42 57/166/42 62/165/42
f 63/172/43 64/171/43 62/170/43 61/169/43
f 62/176/44 57/175/44 58/174/44 61/173/44
f 63/180/45 60/179/45 59/178/45 64/177/45
o cube
v 0.5 0.9999999999999999 0.24375000000000013
v 0.5 0.9999999999999999 -0.2562499999999999
v 0.5 0.9374999999999999 0.24375000000000013
v 0.5 0.9374999999999999 -0.2562499999999999
v 0.375 0.9999999999999999 -0.2562499999999999
v 0.375 0.9999999999999999 0.24375000000000013
v 0.375 0.9374999999999999 -0.2562499999999999
v 0.375 0.9374999999999999 0.24375000000000013
vt 0 0.75
vt 0 0.75
vt 0 0.75
vt 0 0.75
vt 0.28125015625 0.53124984375
vt 0.40624984375 0.53124984375
vt 0.40624984375 0.515625
vt 0.28125015625 0.515625
vt 0 0.75
vt 0 0.75
vt 0 0.75
vt 0 0.75
vt 0.28125015625 0.515625
vt 0.40624984375 0.515625
vt 0.40624984375 0.50000015625
vt 0.28125015625 0.50000015625
vt 0.28125015625 0.50000015625
vt 0.28125015625 0.53124984375
vt 0.40624984375 0.53124984375
vt 0.40624984375 0.50000015625
vt 0 0.75
vt 0 0.75
vt 0 0.75
vt 0 0.75
vn 0 0 -1
vn 1 0 0
vn 0 0 1
vn -1 0 0
vn 0 1 0
vn 0 -1 0
usemtl m_9dbc09cb-1769-90c4-2ae5-08a833a77556
f 68/184/46 71/183/46 69/182/46 66/181/46
f 67/188/47 68/187/47 66/186/47 65/185/47
f 72/192/48 67/191/48 65/190/48 70/189/48
f 71/196/49 72/195/49 70/194/49 69/193/49
f 70/200/50 65/199/50 66/198/50 69/197/50
f 71/204/51 68/203/51 67/202/51 72/201/51
o cube
v 0.5 1 -0.25625
v 0.5 1 -0.38125
v 0.5 0.9375 -0.25625
v 0.5 0.9375 -0.38125
v -0.5 1 -0.38125
v -0.5 1 -0.25625
v -0.5 0.9375 -0.38125
v -0.5 0.9375 -0.25625
vt 0.40624984375 0.50000015625
vt 0.40624984375 0.75
vt 0.42187515625 0.75
vt 0.42187515625 0.50000015625
vt 0.4375 0.73437515625
vt 0.40624984375 0.73437515625
vt 0.40624984375 0.75
vt 0.4375 0.75
vt 0.40624984375 0.50000015625
vt 0.40624984375 0.75
vt 0.42187515625 0.75
vt 0.42187515625 0.50000015625
vt 0.40624984375 0.75
vt 0.4375 0.75
vt 0.4375 0.73437515625
vt 0.40624984375 0.73437515625
vt 0.40624984375 0.50000015625
vt 0.40624984375 0.75
vt 0.4375 0.75
vt 0.4375 0.50000015625
vt 0 0.75
vt 0 0.75
vt 0 0.75
vt 0 0.75
vn 0 0 -1
vn 1 0 0
vn 0 0 1
vn -1 0 0
vn 0 1 0
vn 0 -1 0
usemtl m_9dbc09cb-1769-90c4-2ae5-08a833a77556
f 76/208/52 79/207/52 77/206/52 74/205/52
f 75/212/53 76/211/53 74/210/53 73/209/53
f 80/216/54 75/215/54 73/214/54 78/213/54
f 79/220/55 80/219/55 78/218/55 77/217/55
f 78/224/56 73/223/56 74/222/56 77/221/56
f 79/228/57 76/227/57 75/226/57 80/225/57
o cube
v 0.5 1 0.36875
v 0.5 1 0.24375000000000002
v 0.5 0.9375 0.36875
v 0.5 0.9375 0.24375000000000002
v -0.5 1 0.24375000000000002
v -0.5 1 0.36875
v -0.5 0.9375 0.24375000000000002
v -0.5 0.9375 0.36875
vt 0.40624984375 0.50000015625
vt 0.40624984375 0.75
vt 0.42187515625 0.75
vt 0.42187515625 0.50000015625
vt 0.4375 0.73437515625
vt 0.40624984375 0.73437515625
vt 0.40624984375 0.75
vt 0.4375 0.75
vt 0.40624984375 0.50000015625
vt 0.40624984375 0.75
vt 0.42187515625 0.75
vt 0.42187515625 0.50000015625
vt 0.40624984375 0.75
vt 0.4375 0.75
vt 0.4375 0.73437515625
vt 0.40624984375 0.73437515625
vt 0.40624984375 0.50000015625
vt 0.40624984375 0.75
vt 0.4375 0.75
vt 0.4375 0.50000015625
vt 0 0.75
vt 0 0.75
vt 0 0.75
vt 0 0.75
vn 0 0 -1
vn 1 0 0
vn 0 0 1
vn -1 0 0
vn 0 1 0
vn 0 -1 0
usemtl m_9dbc09cb-1769-90c4-2ae5-08a833a77556
f 84/232/58 87/231/58 85/230/58 82/229/58
f 83/236/59 84/235/59 82/234/59 81/233/59
f 88/240/60 83/239/60 81/238/60 86/237/60
f 87/244/61 88/243/61 86/242/61 85/241/61
f 86/248/62 81/247/62 82/246/62 85/245/62
f 87/252/63 84/251/63 83/250/63 88/249/63
o cube
v -0.375 1 0.24375000000000013
v -0.375 1 -0.2562499999999999
v -0.375 0.9375 0.24375000000000013
v -0.375 0.9375 -0.2562499999999999
v -0.5 1 -0.2562499999999999
v -0.5 1 0.24375000000000013
v -0.5 0.9375 -0.2562499999999999
v -0.5 0.9375 0.24375000000000013
vt 0 0.75
vt 0 0.75
vt 0 0.75
vt 0 0.75
vt 0.40624984375 0.515625
vt 0.28125015625 0.515625
vt 0.28125015625 0.50000015625
vt 0.40624984375 0.50000015625
vt 0 0.75
vt 0 0.75
vt 0 0.75
vt 0 0.75
vt 0.40624984375 0.53124984375
vt 0.28125015625 0.53124984375
vt 0.28125015625 0.515625
vt 0.40624984375 0.515625
vt 0.28125015625 0.53124984375
vt 0.28125015625 0.50000015625
vt 0.40624984375 0.50000015625
vt 0.40624984375 0.53124984375
vt 0 0.75
vt 0 0.75
vt 0 0.75
vt 0 0.75
vn 0 0 -1
vn 1 0 0
vn 0 0 1
vn -1 0 0
vn 0 1 0
vn 0 -1 0
usemtl m_9dbc09cb-1769-90c4-2ae5-08a833a77556
f 92/256/64 95/255/64 93/254/64 90/253/64
f 91/260/65 92/259/65 90/258/65 89/257/65
f 96/264/66 91/263/66 89/262/66 94/261/66
f 95/268/67 96/267/67 94/266/67 93/265/67
f 94/272/68 89/271/68 90/270/68 93/269/68
f 95/276/69 92/275/69 91/274/69 96/273/69
o cube
v 0.3125 0.8125 -0.40625
v 0.3125 0.8125 -0.53125
v 0.3125 0.12499999999999994 -0.40625
v 0.3125 0.12499999999999994 -0.53125
v -0.3125 0.8125 -0.53125
v -0.3125 0.8125 -0.40625
v -0.3125 0.12499999999999994 -0.53125
v -0.3125 0.12499999999999994 -0.40625
vt 0 0.21875
vt 0.15625 0.21875
vt 0.15625 0.046875
vt 0 0.046875
vt 0.15624984375 0.21875015625000005
vt 0.1249996875 0.21875015625000005
vt 0.1249996875 0.046875
vt 0.15624984375 0.046875
vt 0.03125 0.21875015625000005
vt 0 0.21875015625000005
vt 0 0.046875
vt 0.03125 0.046875
vt 0 0.1875
vt 0.15624984375 0.1875
vt 0.15624984375 0.15624984374999995
vt 0 0.15624984374999995
vt 0 0.10937484374999995
vt 0.15624984375 0.10937484374999995
vt 0.15624984375 0.07812515625000005
vt 0 0.07812515625000005
vn 0 0 -1
vn 1 0 0
vn -1 0 0
vn 0 1 0
vn 0 -1 0
usemtl m_9dbc09cb-1769-90c4-2ae5-08a833a77556
f 100/280/70 103/279/70 101/278/70 98/277/70
f 99/284/71 100/283/71 98/282/71 97/281/71
f 103/288/72 104/287/72 102/286/72 101/285/72
f 102/292/73 97/291/73 98/290/73 101/289/73
f 103/296/74 100/295/74 99/294/74 104/293/74
o cube
v -0.1875 0.5625000000000001 -0.53125
v -0.1875 0.5625000000000001 -0.59375
v -0.1875 0.2500000000000001 -0.53125
v -0.1875 0.2500000000000001 -0.59375
v -0.25 0.5625000000000001 -0.59375
v -0.25 0.5625000000000001 -0.53125
v -0.25 0.2500000000000001 -0.59375
v -0.25 0.2500000000000001 -0.53125
vt 0 0.75
vt 0 0.75
vt 0 0.75
vt 0 0.75
vt 0.03125 0.10937484374999995
vt 0.03125 0.09375
vt 0.109375 0.09375
vt 0.109375 0.10937484374999995
vt 0.03125 0.09375
vt 0.03125 0.10937484374999995
vt 0.109375 0.10937484374999995
vt 0.109375 0.09375
vt 0.03125 0.10937484374999995
vt 0.03125 0.09375
vt 0.109375 0.09375
vt 0.109375 0.10937484374999995
vt 0.03125 0.10937484374999995
vt 0.04687484375 0.10937484374999995
vt 0.04687484375 0.09375
vt 0.03125 0.09375
vt 0.0937503125 0.10937484374999995
vt 0.109375 0.10937484374999995
vt 0.109375 0.09375
vt 0.0937503125 0.09375
vn 0 0 -1
vn 1 0 0
vn 0 0 1
vn -1 0 0
vn 0 1 0
vn 0 -1 0
usemtl m_9dbc09cb-1769-90c4-2ae5-08a833a77556
f 108/300/75 111/299/75 109/298/75 106/297/75
f 107/304/76 108/303/76 106/302/76 105/301/76
f 112/308/77 107/307/77 105/306/77 110/305/77
f 111/312/78 112/311/78 110/310/78 109/309/78
f 110/316/79 105/315/79 106/314/79 109/313/79
f 111/320/80 108/319/80 107/318/80 112/317/80
o cube
v 0.1875 0.625 0.49375
v 0.1875 0.625 0.36875
v 0.1875 0.24999999999999997 0.49375
v 0.1875 0.24999999999999997 0.36875
v -0.1875 0.625 0.36875
v -0.1875 0.625 0.49375
v -0.1875 0.24999999999999997 0.36875
v -0.1875 0.24999999999999997 0.49375
vt 0.15624984375 0.24999984374999995
vt 0.25 0.24999984374999995
vt 0.25 0.15624984374999995
vt 0.15624984375 0.15624984374999995
vt 0.07812484375 0.45312515625000005
vt 0.07812484375 0.421875
vt 0.17187515625 0.421875
vt 0.17187515625 0.45312515625000005
vt 0.15625 0.25
vt 0.25 0.25
vt 0.25 0.15625
vt 0.15625 0.15625
vt 0.17187515625 0.421875
vt 0.17187515625 0.45312515625000005
vt 0.07812484375 0.45312515625000005
vt 0.07812484375 0.421875
vt 0.17187515625 0.421875
vt 0.07812484375 0.421875
vt 0.07812484375 0.45312515625000005
vt 0.17187515625 0.45312515625000005
vt 0.17187515625 0.45312515625000005
vt 0.07812484375 0.45312515625000005
vt 0.07812484375 0.421875
vt 0.17187515625 0.421875
vn 0 0 -1
vn 1 0 0
vn 0 0 1
vn -1 0 0
vn 0 1 0
vn 0 -1 0
usemtl m_9dbc09cb-1769-90c4-2ae5-08a833a77556
f 116/324/81 119/323/81 117/322/81 114/321/81
f 115/328/82 116/327/82 114/326/82 113/325/82
f 120/332/83 115/331/83 113/330/83 118/329/83
f 119/336/84 120/335/84 118/334/84 117/333/84
f 118/340/85 113/339/85 114/338/85 117/337/85
f 119/344/86 116/343/86 115/342/86 120/341/86
o cube
v -0.24733502759884507 0.724111563416178 -0.06874999999999992
v -0.24733502759884507 0.724111563416178 -0.3187499999999999
v -0.42411172289548194 0.5473348681195411 -0.06874999999999992
v -0.42411172289548194 0.5473348681195411 -0.3187499999999999
v -0.6008884181921188 1.0776649540094518 -0.3187499999999999
v -0.6008884181921188 1.0776649540094518 -0.06874999999999992
v -0.7776651134887557 0.900888258712815 -0.3187499999999999
v -0.7776651134887557 0.900888258712815 -0.06874999999999992
vt 0.4375 0.1875
vt 0.56249984375 0.1875
vt 0.56249984375 0.24999984374999995
vt 0.4375 0.24999984374999995
vt 0 0.75
vt 0 0.75
vt 0 0.75
vt 0 0.75
vt 0.56249984375 0.24999984374999995
vt 0.4375 0.24999984374999995
vt 0.4375 0.1875
vt 0.56249984375 0.1875
vt 0.62499984375 0.24999984374999995
vt 0.56249984375 0.24999984374999995
vt 0.56249984375 0.1875
vt 0.62499984375 0.1875
vt 0.56249984375 0.24999984374999995
vt 0.4375 0.24999984374999995
vt 0.4375 0.1875
vt 0.56249984375 0.1875
vt 0.56249984375 0.24999984374999995
vt 0.4375 0.24999984374999995
vt 0.4375 0.1875
vt 0.56249984375 0.1875
vn 0 0 -1
vn 0.7071067811865475 -0.7071067811865476 0
vn 0 0 1
vn -0.7071067811865475 0.7071067811865476 0
vn 0.7071067811865476 0.7071067811865475 0
vn -0.7071067811865476 -0.7071067811865475 0
usemtl m_9dbc09cb-1769-90c4-2ae5-08a833a77556
f 124/348/87 127/347/87 125/346/87 122/345/87
f 123/352/88 124/351/88 122/350/88 121/349/88
f 128/356/89 123/355/89 121/354/89 126/353/89
f 127/360/90 128/359/90 126/358/90 125/357/90
f 126/364/91 121/363/91 122/362/91 125/361/91
f 127/368/92 124/367/92 123/366/92 128/365/92
o cube
v -0.24733502759884507 0.724111563416178 0.30625000000000013
v -0.24733502759884507 0.724111563416178 0.05625000000000013
v -0.42411172289548194 0.5473348681195411 0.30625000000000013
v -0.42411172289548194 0.5473348681195411 0.05625000000000013
v -0.6008884181921188 1.0776649540094518 0.05625000000000013
v -0.6008884181921188 1.0776649540094518 0.30625000000000013
v -0.7776651134887557 0.900888258712815 0.05625000000000013
v -0.7776651134887557 0.900888258712815 0.30625000000000013
vt 0.4375 0.1875
vt 0.56249984375 0.1875
vt 0.56249984375 0.24999984374999995
vt 0.4375 0.24999984374999995
vt 0 0.75
vt 0 0.75
vt 0 0.75
vt 0 0.75
vt 0.56249984375 0.24999984374999995
vt 0.4375 0.24999984374999995
vt 0.4375 0.1875
vt 0.56249984375 0.1875
vt 0.62499984375 0.24999984374999995
vt 0.56249984375 0.24999984374999995
vt 0.56249984375 0.1875
vt 0.62499984375 0.1875
vt 0.56249984375 0.24999984374999995
vt 0.4375 0.24999984374999995
vt 0.4375 0.1875
vt 0.56249984375 0.1875
vt 0.56249984375 0.24999984374999995
vt 0.4375 0.24999984374999995
vt 0.4375 0.1875
vt 0.56249984375 0.1875
vn 0 0 -1
vn 0.7071067811865475 -0.7071067811865476 0
vn 0 0 1
vn -0.7071067811865475 0.7071067811865476 0
vn 0.7071067811865476 0.7071067811865475 0
vn -0.7071067811865476 -0.7071067811865475 0
usemtl m_9dbc09cb-1769-90c4-2ae5-08a833a77556
f 132/372/93 135/371/93 133/370/93 130/369/93
f 131/376/94 132/375/94 130/374/94 129/373/94
f 136/380/95 131/379/95 129/378/95 134/377/95
f 135/384/96 136/383/96 134/382/96 133/381/96
f 134/388/97 129/387/97 130/386/97 133/385/97
f 135/392/98 132/391/98 131/390/98 136/389/98
o cube
v 0.6008884181921186 1.0776649540094518 -0.06874999999999992
v 0.6008884181921186 1.0776649540094518 -0.3187499999999999
v 0.7776651134887554 0.9008882587128149 -0.06874999999999992
v 0.7776651134887554 0.9008882587128149 -0.3187499999999999
v 0.24733502759884485 0.724111563416178 -0.3187499999999999
v 0.24733502759884485 0.724111563416178 -0.06874999999999992
v 0.4241117228954817 0.5473348681195411 -0.3187499999999999
v 0.4241117228954817 0.5473348681195411 -0.06874999999999992
vt 0.56249984375 0.1875
vt 0.4375 0.1875
vt 0.4375 0.24999984374999995
vt 0.56249984375 0.24999984374999995
vt 0.56249984375 0.24999984374999995
vt 0.62499984375 0.24999984374999995
vt 0.62499984375 0.1875
vt 0.56249984375 0.1875
vt 0.4375 0.24999984374999995
vt 0.56249984375 0.24999984374999995
vt 0.56249984375 0.1875
vt 0.4375 0.1875
vt 0 0.75
vt 0 0.75
vt 0 0.75
vt 0 0.75
vt 0.4375 0.24999984374999995
vt 0.56249984375 0.24999984374999995
vt 0.56249984375 0.1875
vt 0.4375 0.1875
vt 0.4375 0.24999984374999995
vt 0.56249984375 0.24999984374999995
vt 0.56249984375 0.1875
vt 0.4375 0.1875
vn 0 0 -1
vn 0.7071067811865475 0.7071067811865476 0
vn 0 0 1
vn -0.7071067811865475 -0.7071067811865476 0
vn -0.7071067811865476 0.7071067811865475 0
vn 0.7071067811865476 -0.7071067811865475 0
usemtl m_9dbc09cb-1769-90c4-2ae5-08a833a77556
f 140/396/99 143/395/99 141/394/99 138/393/99
f 139/400/100 140/399/100 138/398/100 137/397/100
f 144/404/101 139/403/101 137/402/101 142/401/101
f 143/408/102 144/407/102 142/406/102 141/405/102
f 142/412/103 137/411/103 138/410/103 141/409/103
f 143/416/104 140/415/104 139/414/104 144/413/104
o cube
v 0.6008884181921185 1.0776649540094518 0.3062499999999999
v 0.6008884181921185 1.0776649540094518 0.05624999999999991
v 0.7776651134887553 0.900888258712815 0.3062499999999999
v 0.7776651134887553 0.900888258712815 0.05624999999999991
v 0.24733502759884474 0.724111563416178 0.05624999999999991
v 0.24733502759884474 0.724111563416178 0.3062499999999999
v 0.42411172289548166 0.5473348681195411 0.05624999999999991
v 0.42411172289548166 0.5473348681195411 0.3062499999999999
vt 0.56249984375 0.1875
vt 0.4375 0.1875
vt 0.4375 0.24999984374999995
vt 0.56249984375 0.24999984374999995
vt 0.56249984375 0.24999984374999995
vt 0.62499984375 0.24999984374999995
vt 0.62499984375 0.1875
vt 0.56249984375 0.1875
vt 0.4375 0.24999984374999995
vt 0.56249984375 0.24999984374999995
vt 0.56249984375 0.1875
vt 0.4375 0.1875
vt 0 0.75
vt 0 0.75
vt 0 0.75
vt 0 0.75
vt 0.4375 0.24999984374999995
vt 0.56249984375 0.24999984374999995
vt 0.56249984375 0.1875
vt 0.4375 0.1875
vt 0.4375 0.24999984374999995
vt 0.56249984375 0.24999984374999995
vt 0.56249984375 0.1875
vt 0.4375 0.1875
vn 0 0 -1
vn 0.7071067811865475 0.7071067811865476 0
vn 0 0 1
vn -0.7071067811865475 -0.7071067811865476 0
vn -0.7071067811865476 0.7071067811865475 0
vn 0.7071067811865476 -0.7071067811865475 0
usemtl m_9dbc09cb-1769-90c4-2ae5-08a833a77556
f 148/420/105 151/419/105 149/418/105 146/417/105
f 147/424/106 148/423/106 146/422/106 145/421/106
f 152/428/107 147/427/107 145/426/107 150/425/107
f 151/432/108 152/431/108 150/430/108 149/429/108
f 150/436/109 145/435/109 146/434/109 149/433/109
f 151/440/110 148/439/110 147/438/110 152/437/110
o cube
v 0.3125000000000001 0.9375 -0.38124999999999987
v 0.3125000000000001 0.9375 -0.5062499999999999
v 0.4375000000000001 0.9375 -0.38124999999999987
v 0.4375000000000001 0.9375 -0.5062499999999999
v 0.3124999999999999 -5.551115123125783e-17 -0.5062499999999999
v 0.3124999999999999 -5.551115123125783e-17 -0.38124999999999987
v 0.4374999999999999 -5.551115123125783e-17 -0.5062499999999999
v 0.4374999999999999 -5.551115123125783e-17 -0.38124999999999987
vt 0.015625 0.4375
vt 0.25 0.4375
vt 0.25 0.46875
vt 0.015625 0.46875
vt 0.46875 0.43749984374999995
vt 0.46875 0.46875
vt 0.4375 0.46875
vt 0.4375 0.43749984374999995
vt 0.4375 0.46875
vt 0.4375 0.43749984374999995
vt 0.46875 0.43749984374999995
vt 0.46875 0.46875
vt 0.6875 0.35937484374999995
vt 0.4375 0.35937484374999995
vt 0.4375 0.390625
vt 0.6875 0.390625
vt 0.453125 0.43750015625000005
vt 0.6875 0.43750015625000005
vt 0.6875 0.46874984374999995
vt 0.453125 0.46874984374999995
vn 0 0 -1
vn 2.220446049250313e-16 1 0
vn -2.220446049250313e-16 -1 0
vn -1 2.220446049250313e-16 0
vn 1 -2.220446049250313e-16 0
usemtl m_9dbc09cb-1769-90c4-2ae5-08a833a77556
f 156/444/111 159/443/111 157/442/111 154/441/111
f 155/448/112 156/447/112 154/446/112 153/445/112
f 159/452/113 160/451/113 158/450/113 157/449/113
f 158/456/114 153/455/114 154/454/114 157/453/114
f 159/460/115 156/459/115 155/458/115 160/457/115
o cube
v -0.31250000000000006 0.5 0.43125
v -0.31250000000000006 0.5 0.36875
v 0.3125 0.4999999999999999 0.43125
v 0.3125 0.4999999999999999 0.36875
v -0.31250000000000006 0.375 0.36875
v -0.31250000000000006 0.375 0.43125
v 0.3125 0.3749999999999999 0.36875
v 0.3125 0.3749999999999999 0.43125
vt 0 0.21875015625000005
vt 0 0.234375
vt 0.15624984375 0.234375
vt 0.15624984375 0.21875015625000005
vt 0 0.25
vt 0 0.21875
vt 0.15625 0.21875
vt 0.15625 0.25
vt 0 0.21875015625000005
vt 0 0.234375
vt 0.15624984375 0.234375
vt 0.15624984375 0.21875015625000005
vt 0.03125 0.24999984374999995
vt 0.03125 0.21875015625000005
vt 0.01562484375 0.21875015625000005
vt 0.01562484375 0.24999984374999995
vt 0.04687484375 0.24999984374999995
vt 0.04687484375 0.21875015625000005
vt 0.06250015625 0.21875015625000005
vt 0.06250015625 0.24999984374999995
vn 2.220446049250313e-16 1 0
vn 0 0 1
vn -2.220446049250313e-16 -1 0
vn -1 2.220446049250313e-16 0
vn 1 -2.220446049250313e-16 0
usemtl m_9dbc09cb-1769-90c4-2ae5-08a833a77556
f 163/464/116 164/463/116 162/462/116 161/461/116
f 168/468/117 163/467/117 161/466/117 166/465/117
f 167/472/118 168/471/118 166/470/118 165/469/118
f 166/476/119 161/475/119 162/474/119 165/473/119
f 167/480/120 164/479/120 163/478/120 168/477/120
o cube
v 0.26516504294495535 0.6142766952966369 0.43125
v 0.26516504294495535 0.6142766952966369 0.36875
v -0.1767766952966369 0.17233495705504465 0.43125
v -0.1767766952966369 0.17233495705504465 0.36875
v 0.17677669529663695 0.7026650429449552 0.36875
v 0.17677669529663695 0.7026650429449552 0.43125
v -0.26516504294495535 0.2607233047033631 0.36875
v -0.26516504294495535 0.2607233047033631 0.43125
vt 0 0.21875015625000005
vt 0 0.234375
vt 0.15624984375 0.234375
vt 0.15624984375 0.21875015625000005
vt 0 0.25
vt 0 0.21875
vt 0.15625 0.21875
vt 0.15625 0.25
vt 0 0.21875015625000005
vt 0 0.234375
vt 0.15624984375 0.234375
vt 0.15624984375 0.21875015625000005
vt 0.03125 0.24999984374999995
vt 0.03125 0.21875015625000005
vt 0.01562484375 0.21875015625000005
vt 0.01562484375 0.24999984374999995
vt 0.04687484375 0.24999984374999995
vt 0.04687484375 0.21875015625000005
vt 0.06250015625 0.21875015625000005
vt 0.06250015625 0.24999984374999995
vn 0.7071067811865475 -0.7071067811865476 0
vn 0 0 1
vn -0.7071067811865475 0.7071067811865476 0
vn 0.7071067811865476 0.7071067811865475 0
vn -0.7071067811865476 -0.7071067811865475 0
usemtl m_9dbc09cb-1769-90c4-2ae5-08a833a77556
f 171/484/121 172/483/121 170/482/121 169/481/121
f 176/488/122 171/487/122 169/486/122 174/485/122
f 175/492/123 176/491/123 174/490/123 173/489/123
f 174/496/124 169/495/124 170/494/124 173/493/124
f 175/500/125 172/499/125 171/498/125 176/497/125
o cube
v -0.17677669529663695 0.7026650429449552 0.43125
v -0.17677669529663695 0.7026650429449552 0.36875
v 0.26516504294495535 0.2607233047033631 0.43125
v 0.26516504294495535 0.2607233047033631 0.36875
v -0.26516504294495535 0.6142766952966369 0.36875
v -0.26516504294495535 0.6142766952966369 0.43125
v 0.1767766952966369 0.17233495705504465 0.36875
v 0.1767766952966369 0.17233495705504465 0.43125
vt 0 0.21875015625000005
vt 0 0.234375
vt 0.15624984375 0.234375
vt 0.15624984375 0.21875015625000005
vt 0 0.25
vt 0 0.21875
vt 0.15625 0.21875
vt 0.15625 0.25
vt 0 0.21875015625000005
vt 0 0.234375
vt 0.15624984375 0.234375
vt 0.15624984375 0.21875015625000005
vt 0.03125 0.24999984374999995
vt 0.03125 0.21875015625000005
vt 0.01562484375 0.21875015625000005
vt 0.01562484375 0.24999984374999995
vt 0.04687484375 0.24999984374999995
vt 0.04687484375 0.21875015625000005
vt 0.06250015625 0.21875015625000005
vt 0.06250015625 0.24999984374999995
vn 0.7071067811865475 0.7071067811865476 0
vn 0 0 1
vn -0.7071067811865475 -0.7071067811865476 0
vn -0.7071067811865476 0.7071067811865475 0
vn 0.7071067811865476 -0.7071067811865475 0
usemtl m_9dbc09cb-1769-90c4-2ae5-08a833a77556
f 179/504/126 180/503/126 178/502/126 177/501/126
f 184/508/127 179/507/127 177/506/127 182/505/127
f 183/512/128 184/511/128 182/510/128 181/509/128
f 182/516/129 177/515/129 178/514/129 181/513/129
f 183/520/130 180/519/130 179/518/130 184/517/130
o cube
v 0.0625 0.75 0.43125
v 0.0625 0.75 0.36875
v 0.0625 0.12499999999999994 0.43125
v 0.0625 0.12499999999999994 0.36875
v -0.0625 0.75 0.36875
v -0.0625 0.75 0.43125
v -0.0625 0.12499999999999994 0.36875
v -0.0625 0.12499999999999994 0.43125
vt 0 0.21875015625000005
vt 0 0.234375
vt 0.15624984375 0.234375
vt 0.15624984375 0.21875015625000005
vt 0 0.25
vt 0 0.21875
vt 0.15625 0.21875
vt 0.15625 0.25
vt 0 0.21875015625000005
vt 0 0.234375
vt 0.15624984375 0.234375
vt 0.15624984375 0.21875015625000005
vt 0.03125 0.24999984374999995
vt 0.03125 0.21875015625000005
vt 0.01562484375 0.21875015625000005
vt 0.01562484375 0.24999984374999995
vt 0.04687484375 0.24999984374999995
vt 0.04687484375 0.21875015625000005
vt 0.06250015625 0.21875015625000005
vt 0.06250015625 0.24999984374999995
vn 1 0 0
vn 0 0 1
vn -1 0 0
vn 0 1 0
vn 0 -1 0
usemtl m_9dbc09cb-1769-90c4-2ae5-08a833a77556
f 187/524/131 188/523/131 186/522/131 185/521/131
f 192/528/132 187/527/132 185/526/132 190/525/132
f 191/532/133 192/531/133 190/530/133 189/529/133
f 190/536/134 185/535/134 186/534/134 189/533/134
f 191/540/135 188/539/135 187/538/135 192/537/135